  0
SECTION
  2
BLOCKS
  0
ENDSEC
  0
SECTION
  2
ENTITIES
  0
LINE
  8
0
 10
99.5
 20
60.5
 11
99.5
 21
73.5
  0
LINE
  8
0
 10
99.5
 20
73.5
 11
98.5
 21
74.5
  0
LINE
  8
0
 10
98.5
 20
74.5
 11
73.5
 21
74.5
  0
LINE
  8
0
 10
73.5
 20
74.5
 11
72.5
 21
73.5
  0
LINE
  8
0
 10
72.5
 20
73.5
 11
72.5
 21
60.5
  0
LINE
  8
0
 10
72.5
 20
60.5
 11
78.5
 21
54.5
  0
LINE
  8
0
 10
78.5
 20
54.5
 11
93.5
 21
54.5
  0
LINE
  8
0
 10
93.5
 20
54.5
 11
99.5
 21
60.5
  0
LINE
  8
0
 10
66.3682
 20
63.0459
 11
66.8204
 21
63.2442
  0
LINE
  8
0
 10
66.8204
 20
63.2442
 11
67.1837
 21
63.5787
  0
LINE
  8
0
 10
67.1837
 20
63.5787
 11
67.4187
 21
64.013
  0
LINE
  8
0
 10
67.4187
 20
64.013
 11
67.5
 21
64.5
  0
LINE
  8
0
 10
67.5
 20
64.5
 11
67.4187
 21
64.987
  0
LINE
  8
0
 10
67.4187
 20
64.987
 11
67.1837
 21
65.4213
  0
LINE
  8
0
 10
67.1837
 20
65.4213
 11
66.8204
 21
65.7558
  0
LINE
  8
0
 10
66.8204
 20
65.7558
 11
66.3682
 21
65.9541
  0
LINE
  8
0
 10
66.3682
 20
65.9541
 11
65.8761
 21
65.9949
  0
LINE
  8
0
 10
65.8761
 20
65.9949
 11
65.3974
 21
65.8737
  0
LINE
  8
0
 10
65.3974
 20
65.8737
 11
64.9841
 21
65.6036
  0
LINE
  8
0
 10
64.9841
 20
65.6036
 11
64.6808
 21
65.2139
  0
LINE
  8
0
 10
64.6808
 20
65.2139
 11
64.5204
 21
64.7469
  0
LINE
  8
0
 10
64.5204
 20
64.7469
 11
64.5204
 21
64.2531
  0
LINE
  8
0
 10
64.5204
 20
64.2531
 11
64.6808
 21
63.7861
  0
LINE
  8
0
 10
64.6808
 20
63.7861
 11
64.9841
 21
63.3964
  0
LINE
  8
0
 10
64.9841
 20
63.3964
 11
65.3974
 21
63.1263
  0
LINE
  8
0
 10
65.3974
 20
63.1263
 11
65.8761
 21
63.0051
  0
LINE
  8
0
 10
65.8761
 20
63.0051
 11
66.3682
 21
63.0459
  0
LINE
  8
0
 10
106.368
 20
63.0459
 11
106.82
 21
63.2442
  0
LINE
  8
0
 10
106.82
 20
63.2442
 11
107.184
 21
63.5787
  0
LINE
  8
0
 10
107.184
 20
63.5787
 11
107.419
 21
64.013
  0
LINE
  8
0
 10
107.419
 20
64.013
 11
107.5
 21
64.5
  0
LINE
  8
0
 10
107.5
 20
64.5
 11
107.419
 21
64.987
  0
LINE
  8
0
 10
107.419
 20
64.987
 11
107.184
 21
65.4213
  0
LINE
  8
0
 10
107.184
 20
65.4213
 11
106.82
 21
65.7558
  0
LINE
  8
0
 10
106.82
 20
65.7558
 11
106.368
 21
65.9541
  0
LINE
  8
0
 10
106.368
 20
65.9541
 11
105.876
 21
65.9949
  0
LINE
  8
0
 10
105.876
 20
65.9949
 11
105.397
 21
65.8737
  0
LINE
  8
0
 10
105.397
 20
65.8737
 11
104.984
 21
65.6036
  0
LINE
  8
0
 10
104.984
 20
65.6036
 11
104.681
 21
65.2139
  0
LINE
  8
0
 10
104.681
 20
65.2139
 11
104.52
 21
64.7469
  0
LINE
  8
0
 10
104.52
 20
64.7469
 11
104.52
 21
64.2531
  0
LINE
  8
0
 10
104.52
 20
64.2531
 11
104.681
 21
63.7861
  0
LINE
  8
0
 10
104.681
 20
63.7861
 11
104.984
 21
63.3964
  0
LINE
  8
0
 10
104.984
 20
63.3964
 11
105.397
 21
63.1263
  0
LINE
  8
0
 10
105.397
 20
63.1263
 11
105.876
 21
63.0051
  0
LINE
  8
0
 10
105.876
 20
63.0051
 11
106.368
 21
63.0459
  0
LINE
  8
0
 10
51.7092
 20
61.13
 11
52.1361
 21
61.354
  0
LINE
  8
0
 10
52.1361
 20
61.354
 11
52.497
 21
61.6738
  0
LINE
  8
0
 10
52.497
 20
61.6738
 11
52.7709
 21
62.0705
  0
LINE
  8
0
 10
52.7709
 20
62.0705
 11
52.9419
 21
62.5214
  0
LINE
  8
0
 10
52.9419
 20
62.5214
 11
53
 21
63
  0
LINE
  8
0
 10
53
 20
63
 11
52.9419
 21
63.4786
  0
LINE
  8
0
 10
52.9419
 20
63.4786
 11
52.7709
 21
63.9294
  0
LINE
  8
0
 10
52.7709
 20
63.9294
 11
52.497
 21
64.3262
  0
LINE
  8
0
 10
52.497
 20
64.3262
 11
52.1361
 21
64.646
  0
LINE
  8
0
 10
52.1361
 20
64.646
 11
51.7092
 21
64.87
  0
LINE
  8
0
 10
51.7092
 20
64.87
 11
51.2411
 21
64.9854
  0
LINE
  8
0
 10
51.2411
 20
64.9854
 11
50.7589
 21
64.9854
  0
LINE
  8
0
 10
50.7589
 20
64.9854
 11
50.2908
 21
64.87
  0
LINE
  8
0
 10
50.2908
 20
64.87
 11
49.8639
 21
64.646
  0
LINE
  8
0
 10
49.8639
 20
64.646
 11
49.503
 21
64.3262
  0
LINE
  8
0
 10
49.503
 20
64.3262
 11
49.2291
 21
63.9294
  0
LINE
  8
0
 10
49.2291
 20
63.9294
 11
49.0581
 21
63.4786
  0
LINE
  8
0
 10
49.0581
 20
63.4786
 11
49
 21
63
  0
LINE
  8
0
 10
49
 20
63
 11
49.0581
 21
62.5214
  0
LINE
  8
0
 10
49.0581
 20
62.5214
 11
49.2291
 21
62.0705
  0
LINE
  8
0
 10
49.2291
 20
62.0705
 11
49.503
 21
61.6738
  0
LINE
  8
0
 10
49.503
 20
61.6738
 11
49.8639
 21
61.354
  0
LINE
  8
0
 10
49.8639
 20
61.354
 11
50.2908
 21
61.13
  0
LINE
  8
0
 10
50.2908
 20
61.13
 11
50.7589
 21
61.0146
  0
LINE
  8
0
 10
50.7589
 20
61.0146
 11
51.2411
 21
61.0146
  0
LINE
  8
0
 10
51.2411
 20
61.0146
 11
51.7092
 21
61.13
  0
LINE
  8
0
 10
13.7092
 20
61.13
 11
14.1361
 21
61.354
  0
LINE
  8
0
 10
14.1361
 20
61.354
 11
14.497
 21
61.6738
  0
LINE
  8
0
 10
14.497
 20
61.6738
 11
14.7709
 21
62.0705
  0
LINE
  8
0
 10
14.7709
 20
62.0705
 11
14.9419
 21
62.5214
  0
LINE
  8
0
 10
14.9419
 20
62.5214
 11
15
 21
63
  0
LINE
  8
0
 10
15
 20
63
 11
14.9419
 21
63.4786
  0
LINE
  8
0
 10
14.9419
 20
63.4786
 11
14.7709
 21
63.9294
  0
LINE
  8
0
 10
14.7709
 20
63.9294
 11
14.497
 21
64.3262
  0
LINE
  8
0
 10
14.497
 20
64.3262
 11
14.1361
 21
64.646
  0
LINE
  8
0
 10
14.1361
 20
64.646
 11
13.7092
 21
64.87
  0
LINE
  8
0
 10
13.7092
 20
64.87
 11
13.2411
 21
64.9854
  0
LINE
  8
0
 10
13.2411
 20
64.9854
 11
12.7589
 21
64.9854
  0
LINE
  8
0
 10
12.7589
 20
64.9854
 11
12.2908
 21
64.87
  0
LINE
  8
0
 10
12.2908
 20
64.87
 11
11.8639
 21
64.646
  0
LINE
  8
0
 10
11.8639
 20
64.646
 11
11.503
 21
64.3262
  0
LINE
  8
0
 10
11.503
 20
64.3262
 11
11.2291
 21
63.9294
  0
LINE
  8
0
 10
11.2291
 20
63.9294
 11
11.0581
 21
63.4786
  0
LINE
  8
0
 10
11.0581
 20
63.4786
 11
11
 21
63
  0
LINE
  8
0
 10
11
 20
63
 11
11.0581
 21
62.5214
  0
LINE
  8
0
 10
11.0581
 20
62.5214
 11
11.2291
 21
62.0705
  0
LINE
  8
0
 10
11.2291
 20
62.0705
 11
11.503
 21
61.6738
  0
LINE
  8
0
 10
11.503
 20
61.6738
 11
11.8639
 21
61.354
  0
LINE
  8
0
 10
11.8639
 20
61.354
 11
12.2908
 21
61.13
  0
LINE
  8
0
 10
12.2908
 20
61.13
 11
12.7589
 21
61.0146
  0
LINE
  8
0
 10
12.7589
 20
61.0146
 11
13.2411
 21
61.0146
  0
LINE
  8
0
 10
13.2411
 20
61.0146
 11
13.7092
 21
61.13
  0
LINE
  8
0
 10
32.7242
 20
23.2626
 11
33.4474
 21
23.3005
  0
LINE
  8
0
 10
33.4474
 20
23.3005
 11
34.169
 21
23.3637
  0
LINE
  8
0
 10
34.169
 20
23.3637
 11
34.8878
 21
23.4519
  0
LINE
  8
0
 10
34.8878
 20
23.4519
 11
35.6032
 21
23.5652
  0
LINE
  8
0
 10
35.6032
 20
23.5652
 11
36.3142
 21
23.7034
  0
LINE
  8
0
 10
36.3142
 20
23.7034
 11
37.0199
 21
23.8664
  0
LINE
  8
0
 10
37.0199
 20
23.8664
 11
37.7195
 21
24.0538
  0
LINE
  8
0
 10
37.7195
 20
24.0538
 11
38.4121
 21
24.2656
  0
LINE
  8
0
 10
38.4121
 20
24.2656
 11
39.0969
 21
24.5014
  0
LINE
  8
0
 10
39.0969
 20
24.5014
 11
39.7731
 21
24.7609
  0
LINE
  8
0
 10
39.7731
 20
24.7609
 11
40.4398
 21
25.0439
  0
LINE
  8
0
 10
40.4398
 20
25.0439
 11
41.0962
 21
25.35
  0
LINE
  8
0
 10
41.0962
 20
25.35
 11
41.7415
 21
25.6788
  0
LINE
  8
0
 10
41.7415
 20
25.6788
 11
42.375
 21
26.03
  0
LINE
  8
0
 10
42.375
 20
26.03
 11
42.9958
 21
26.403
  0
LINE
  8
0
 10
42.9958
 20
26.403
 11
43.6032
 21
26.7975
  0
LINE
  8
0
 10
43.6032
 20
26.7975
 11
44.1965
 21
27.2129
  0
LINE
  8
0
 10
44.1965
 20
27.2129
 11
44.775
 21
27.6488
  0
LINE
  8
0
 10
44.775
 20
27.6488
 11
45.3378
 21
28.1046
  0
LINE
  8
0
 10
45.3378
 20
28.1046
 11
45.8845
 21
28.5797
  0
LINE
  8
0
 10
45.8845
 20
28.5797
 11
46.4142
 21
29.0737
  0
LINE
  8
0
 10
46.4142
 20
29.0737
 11
46.9263
 21
29.5858
  0
LINE
  8
0
 10
46.9263
 20
29.5858
 11
47.4202
 21
30.1155
  0
LINE
  8
0
 10
47.4202
 20
30.1155
 11
47.8954
 21
30.6622
  0
LINE
  8
0
 10
47.8954
 20
30.6622
 11
48.3512
 21
31.225
  0
LINE
  8
0
 10
48.3512
 20
31.225
 11
48.7871
 21
31.8035
  0
LINE
  8
0
 10
48.7871
 20
31.8035
 11
49.2025
 21
32.3967
  0
LINE
  8
0
 10
49.2025
 20
32.3967
 11
49.597
 21
33.0042
  0
LINE
  8
0
 10
49.597
 20
33.0042
 11
49.97
 21
33.625
  0
LINE
  8
0
 10
49.97
 20
33.625
 11
50.3212
 21
34.2585
  0
LINE
  8
0
 10
50.3212
 20
34.2585
 11
50.65
 21
34.9038
  0
LINE
  8
0
 10
50.65
 20
34.9038
 11
50.9561
 21
35.5602
  0
LINE
  8
0
 10
50.9561
 20
35.5602
 11
51.2391
 21
36.2269
  0
LINE
  8
0
 10
51.2391
 20
36.2269
 11
51.4986
 21
36.9031
  0
LINE
  8
0
 10
51.4986
 20
36.9031
 11
51.7344
 21
37.5879
  0
LINE
  8
0
 10
51.7344
 20
37.5879
 11
51.9462
 21
38.2805
  0
LINE
  8
0
 10
51.9462
 20
38.2805
 11
52.1336
 21
38.9801
  0
LINE
  8
0
 10
52.1336
 20
38.9801
 11
52.2966
 21
39.6858
  0
LINE
  8
0
 10
52.2966
 20
39.6858
 11
52.4348
 21
40.3968
  0
LINE
  8
0
 10
52.4348
 20
40.3968
 11
52.548
 21
41.1122
  0
LINE
  8
0
 10
52.548
 20
41.1122
 11
52.6363
 21
41.831
  0
LINE
  8
0
 10
52.6363
 20
41.831
 11
52.6994
 21
42.5526
  0
LINE
  8
0
 10
52.6994
 20
42.5526
 11
52.7374
 21
43.2758
  0
LINE
  8
0
 10
52.7374
 20
43.2758
 11
52.75
 21
44
  0
LINE
  8
0
 10
52.75
 20
44
 11
52.7374
 21
44.7242
  0
LINE
  8
0
 10
52.7374
 20
44.7242
 11
52.6994
 21
45.4474
  0
LINE
  8
0
 10
52.6994
 20
45.4474
 11
52.6363
 21
46.169
  0
LINE
  8
0
 10
52.6363
 20
46.169
 11
52.548
 21
46.8878
  0
LINE
  8
0
 10
52.548
 20
46.8878
 11
52.4348
 21
47.6032
  0
LINE
  8
0
 10
52.4348
 20
47.6032
 11
52.2966
 21
48.3142
  0
LINE
  8
0
 10
52.2966
 20
48.3142
 11
52.1336
 21
49.0199
  0
LINE
  8
0
 10
52.1336
 20
49.0199
 11
51.9462
 21
49.7195
  0
LINE
  8
0
 10
51.9462
 20
49.7195
 11
51.7344
 21
50.4121
  0
LINE
  8
0
 10
51.7344
 20
50.4121
 11
51.4986
 21
51.0969
  0
LINE
  8
0
 10
51.4986
 20
51.0969
 11
51.2391
 21
51.7731
  0
LINE
  8
0
 10
51.2391
 20
51.7731
 11
50.9561
 21
52.4398
  0
LINE
  8
0
 10
50.9561
 20
52.4398
 11
50.65
 21
53.0962
  0
LINE
  8
0
 10
50.65
 20
53.0962
 11
50.3212
 21
53.7415
  0
LINE
  8
0
 10
50.3212
 20
53.7415
 11
49.97
 21
54.375
  0
LINE
  8
0
 10
49.97
 20
54.375
 11
49.597
 21
54.9958
  0
LINE
  8
0
 10
49.597
 20
54.9958
 11
49.2025
 21
55.6032
  0
LINE
  8
0
 10
49.2025
 20
55.6032
 11
48.7871
 21
56.1965
  0
LINE
  8
0
 10
48.7871
 20
56.1965
 11
48.3512
 21
56.775
  0
LINE
  8
0
 10
48.3512
 20
56.775
 11
47.8954
 21
57.3378
  0
LINE
  8
0
 10
47.8954
 20
57.3378
 11
47.4202
 21
57.8845
  0
LINE
  8
0
 10
47.4202
 20
57.8845
 11
46.9263
 21
58.4142
  0
LINE
  8
0
 10
46.9263
 20
58.4142
 11
46.4142
 21
58.9263
  0
LINE
  8
0
 10
46.4142
 20
58.9263
 11
45.8845
 21
59.4203
  0
LINE
  8
0
 10
45.8845
 20
59.4203
 11
45.3378
 21
59.8954
  0
LINE
  8
0
 10
45.3378
 20
59.8954
 11
44.775
 21
60.3512
  0
LINE
  8
0
 10
44.775
 20
60.3512
 11
44.1965
 21
60.7871
  0
LINE
  8
0
 10
44.1965
 20
60.7871
 11
43.6032
 21
61.2025
  0
LINE
  8
0
 10
43.6032
 20
61.2025
 11
42.9958
 21
61.597
  0
LINE
  8
0
 10
42.9958
 20
61.597
 11
42.375
 21
61.97
  0
LINE
  8
0
 10
42.375
 20
61.97
 11
41.7415
 21
62.3212
  0
LINE
  8
0
 10
41.7415
 20
62.3212
 11
41.0962
 21
62.65
  0
LINE
  8
0
 10
41.0962
 20
62.65
 11
40.4398
 21
62.9561
  0
LINE
  8
0
 10
40.4398
 20
62.9561
 11
39.7731
 21
63.2391
  0
LINE
  8
0
 10
39.7731
 20
63.2391
 11
39.0969
 21
63.4986
  0
LINE
  8
0
 10
39.0969
 20
63.4986
 11
38.4121
 21
63.7344
  0
LINE
  8
0
 10
38.4121
 20
63.7344
 11
37.7195
 21
63.9462
  0
LINE
  8
0
 10
37.7195
 20
63.9462
 11
37.0199
 21
64.1336
  0
LINE
  8
0
 10
37.0199
 20
64.1336
 11
36.3142
 21
64.2966
  0
LINE
  8
0
 10
36.3142
 20
64.2966
 11
35.6032
 21
64.4348
  0
LINE
  8
0
 10
35.6032
 20
64.4348
 11
34.8878
 21
64.5481
  0
LINE
  8
0
 10
34.8878
 20
64.5481
 11
34.169
 21
64.6363
  0
LINE
  8
0
 10
34.169
 20
64.6363
 11
33.4474
 21
64.6994
  0
LINE
  8
0
 10
33.4474
 20
64.6994
 11
32.7242
 21
64.7374
  0
LINE
  8
0
 10
32.7242
 20
64.7374
 11
32
 21
64.75
  0
LINE
  8
0
 10
32
 20
64.75
 11
31.2758
 21
64.7374
  0
LINE
  8
0
 10
31.2758
 20
64.7374
 11
30.5526
 21
64.6994
  0
LINE
  8
0
 10
30.5526
 20
64.6994
 11
29.831
 21
64.6363
  0
LINE
  8
0
 10
29.831
 20
64.6363
 11
29.1122
 21
64.5481
  0
LINE
  8
0
 10
29.1122
 20
64.5481
 11
28.3968
 21
64.4348
  0
LINE
  8
0
 10
28.3968
 20
64.4348
 11
27.6858
 21
64.2966
  0
LINE
  8
0
 10
27.6858
 20
64.2966
 11
26.9801
 21
64.1336
  0
LINE
  8
0
 10
26.9801
 20
64.1336
 11
26.2805
 21
63.9462
  0
LINE
  8
0
 10
26.2805
 20
63.9462
 11
25.5879
 21
63.7344
  0
LINE
  8
0
 10
25.5879
 20
63.7344
 11
24.9031
 21
63.4986
  0
LINE
  8
0
 10
24.9031
 20
63.4986
 11
24.2269
 21
63.2391
  0
LINE
  8
0
 10
24.2269
 20
63.2391
 11
23.5602
 21
62.9561
  0
LINE
  8
0
 10
23.5602
 20
62.9561
 11
22.9038
 21
62.65
  0
LINE
  8
0
 10
22.9038
 20
62.65
 11
22.2585
 21
62.3212
  0
LINE
  8
0
 10
22.2585
 20
62.3212
 11
21.625
 21
61.97
  0
LINE
  8
0
 10
21.625
 20
61.97
 11
21.0042
 21
61.597
  0
LINE
  8
0
 10
21.0042
 20
61.597
 11
20.3967
 21
61.2025
  0
LINE
  8
0
 10
20.3967
 20
61.2025
 11
19.8035
 21
60.7871
  0
LINE
  8
0
 10
19.8035
 20
60.7871
 11
19.225
 21
60.3512
  0
LINE
  8
0
 10
19.225
 20
60.3512
 11
18.6622
 21
59.8954
  0
LINE
  8
0
 10
18.6622
 20
59.8954
 11
18.1155
 21
59.4203
  0
LINE
  8
0
 10
18.1155
 20
59.4203
 11
17.5858
 21
58.9263
  0
LINE
  8
0
 10
17.5858
 20
58.9263
 11
17.0737
 21
58.4142
  0
LINE
  8
0
 10
17.0737
 20
58.4142
 11
16.5797
 21
57.8845
  0
LINE
  8
0
 10
16.5797
 20
57.8845
 11
16.1046
 21
57.3378
  0
LINE
  8
0
 10
16.1046
 20
57.3378
 11
15.6488
 21
56.775
  0
LINE
  8
0
 10
15.6488
 20
56.775
 11
15.2129
 21
56.1965
  0
LINE
  8
0
 10
15.2129
 20
56.1965
 11
14.7975
 21
55.6032
  0
LINE
  8
0
 10
14.7975
 20
55.6032
 11
14.403
 21
54.9958
  0
LINE
  8
0
 10
14.403
 20
54.9958
 11
14.03
 21
54.375
  0
LINE
  8
0
 10
14.03
 20
54.375
 11
13.6788
 21
53.7415
  0
LINE
  8
0
 10
13.6788
 20
53.7415
 11
13.35
 21
53.0962
  0
LINE
  8
0
 10
13.35
 20
53.0962
 11
13.0439
 21
52.4398
  0
LINE
  8
0
 10
13.0439
 20
52.4398
 11
12.7609
 21
51.7731
  0
LINE
  8
0
 10
12.7609
 20
51.7731
 11
12.5014
 21
51.0969
  0
LINE
  8
0
 10
12.5014
 20
51.0969
 11
12.2656
 21
50.4121
  0
LINE
  8
0
 10
12.2656
 20
50.4121
 11
12.0538
 21
49.7195
  0
LINE
  8
0
 10
12.0538
 20
49.7195
 11
11.8664
 21
49.0199
  0
LINE
  8
0
 10
11.8664
 20
49.0199
 11
11.7034
 21
48.3142
  0
LINE
  8
0
 10
11.7034
 20
48.3142
 11
11.5652
 21
47.6032
  0
LINE
  8
0
 10
11.5652
 20
47.6032
 11
11.4519
 21
46.8878
  0
LINE
  8
0
 10
11.4519
 20
46.8878
 11
11.3637
 21
46.169
  0
LINE
  8
0
 10
11.3637
 20
46.169
 11
11.3005
 21
45.4474
  0
LINE
  8
0
 10
11.3005
 20
45.4474
 11
11.2626
 21
44.7242
  0
LINE
  8
0
 10
11.2626
 20
44.7242
 11
11.25
 21
44
  0
LINE
  8
0
 10
11.25
 20
44
 11
11.2626
 21
43.2758
  0
LINE
  8
0
 10
11.2626
 20
43.2758
 11
11.3005
 21
42.5526
  0
LINE
  8
0
 10
11.3005
 20
42.5526
 11
11.3637
 21
41.831
  0
LINE
  8
0
 10
11.3637
 20
41.831
 11
11.4519
 21
41.1122
  0
LINE
  8
0
 10
11.4519
 20
41.1122
 11
11.5652
 21
40.3968
  0
LINE
  8
0
 10
11.5652
 20
40.3968
 11
11.7034
 21
39.6858
  0
LINE
  8
0
 10
11.7034
 20
39.6858
 11
11.8664
 21
38.9801
  0
LINE
  8
0
 10
11.8664
 20
38.9801
 11
12.0538
 21
38.2805
  0
LINE
  8
0
 10
12.0538
 20
38.2805
 11
12.2656
 21
37.5879
  0
LINE
  8
0
 10
12.2656
 20
37.5879
 11
12.5014
 21
36.9031
  0
LINE
  8
0
 10
12.5014
 20
36.9031
 11
12.7609
 21
36.2269
  0
LINE
  8
0
 10
12.7609
 20
36.2269
 11
13.0439
 21
35.5602
  0
LINE
  8
0
 10
13.0439
 20
35.5602
 11
13.35
 21
34.9038
  0
LINE
  8
0
 10
13.35
 20
34.9038
 11
13.6788
 21
34.2585
  0
LINE
  8
0
 10
13.6788
 20
34.2585
 11
14.03
 21
33.625
  0
LINE
  8
0
 10
14.03
 20
33.625
 11
14.403
 21
33.0042
  0
LINE
  8
0
 10
14.403
 20
33.0042
 11
14.7975
 21
32.3967
  0
LINE
  8
0
 10
14.7975
 20
32.3967
 11
15.2129
 21
31.8035
  0
LINE
  8
0
 10
15.2129
 20
31.8035
 11
15.6488
 21
31.225
  0
LINE
  8
0
 10
15.6488
 20
31.225
 11
16.1046
 21
30.6622
  0
LINE
  8
0
 10
16.1046
 20
30.6622
 11
16.5797
 21
30.1155
  0
LINE
  8
0
 10
16.5797
 20
30.1155
 11
17.0737
 21
29.5858
  0
LINE
  8
0
 10
17.0737
 20
29.5858
 11
17.5858
 21
29.0737
  0
LINE
  8
0
 10
17.5858
 20
29.0737
 11
18.1155
 21
28.5797
  0
LINE
  8
0
 10
18.1155
 20
28.5797
 11
18.6622
 21
28.1046
  0
LINE
  8
0
 10
18.6622
 20
28.1046
 11
19.225
 21
27.6488
  0
LINE
  8
0
 10
19.225
 20
27.6488
 11
19.8035
 21
27.2129
  0
LINE
  8
0
 10
19.8035
 20
27.2129
 11
20.3967
 21
26.7975
  0
LINE
  8
0
 10
20.3967
 20
26.7975
 11
21.0042
 21
26.403
  0
LINE
  8
0
 10
21.0042
 20
26.403
 11
21.625
 21
26.03
  0
LINE
  8
0
 10
21.625
 20
26.03
 11
22.2585
 21
25.6788
  0
LINE
  8
0
 10
22.2585
 20
25.6788
 11
22.9038
 21
25.35
  0
LINE
  8
0
 10
22.9038
 20
25.35
 11
23.5602
 21
25.0439
  0
LINE
  8
0
 10
23.5602
 20
25.0439
 11
24.2269
 21
24.7609
  0
LINE
  8
0
 10
24.2269
 20
24.7609
 11
24.9031
 21
24.5014
  0
LINE
  8
0
 10
24.9031
 20
24.5014
 11
25.5879
 21
24.2656
  0
LINE
  8
0
 10
25.5879
 20
24.2656
 11
26.2805
 21
24.0538
  0
LINE
  8
0
 10
26.2805
 20
24.0538
 11
26.9801
 21
23.8664
  0
LINE
  8
0
 10
26.9801
 20
23.8664
 11
27.6858
 21
23.7034
  0
LINE
  8
0
 10
27.6858
 20
23.7034
 11
28.3968
 21
23.5652
  0
LINE
  8
0
 10
28.3968
 20
23.5652
 11
29.1122
 21
23.4519
  0
LINE
  8
0
 10
29.1122
 20
23.4519
 11
29.831
 21
23.3637
  0
LINE
  8
0
 10
29.831
 20
23.3637
 11
30.5526
 21
23.3005
  0
LINE
  8
0
 10
30.5526
 20
23.3005
 11
31.2758
 21
23.2626
  0
LINE
  8
0
 10
31.2758
 20
23.2626
 11
32
 21
23.25
  0
LINE
  8
0
 10
32
 20
23.25
 11
32.7242
 21
23.2626
  0
LINE
  8
0
 10
104.75
 20
43.5
 11
83.25
 21
43.5
  0
LINE
  8
0
 10
83.25
 20
43.5
 11
83.25
 21
15.5
  0
LINE
  8
0
 10
83.25
 20
15.5
 11
104.75
 21
15.5
  0
LINE
  8
0
 10
104.75
 20
15.5
 11
104.75
 21
43.5
  0
LINE
  8
0
 10
76
 20
34
 11
63.5
 21
34
  0
LINE
  8
0
 10
63.5
 20
34
 11
63.5
 21
15
  0
LINE
  8
0
 10
63.5
 20
15
 11
76
 21
15
  0
LINE
  8
0
 10
76
 20
15
 11
76
 21
34
  0
LINE
  8
0
 10
13.7092
 20
23.13
 11
14.1361
 21
23.354
  0
LINE
  8
0
 10
14.1361
 20
23.354
 11
14.497
 21
23.6738
  0
LINE
  8
0
 10
14.497
 20
23.6738
 11
14.7709
 21
24.0705
  0
LINE
  8
0
 10
14.7709
 20
24.0705
 11
14.9419
 21
24.5214
  0
LINE
  8
0
 10
14.9419
 20
24.5214
 11
15
 21
25
  0
LINE
  8
0
 10
15
 20
25
 11
14.9419
 21
25.4786
  0
LINE
  8
0
 10
14.9419
 20
25.4786
 11
14.7709
 21
25.9294
  0
LINE
  8
0
 10
14.7709
 20
25.9294
 11
14.497
 21
26.3262
  0
LINE
  8
0
 10
14.497
 20
26.3262
 11
14.1361
 21
26.646
  0
LINE
  8
0
 10
14.1361
 20
26.646
 11
13.7092
 21
26.87
  0
LINE
  8
0
 10
13.7092
 20
26.87
 11
13.2411
 21
26.9854
  0
LINE
  8
0
 10
13.2411
 20
26.9854
 11
12.7589
 21
26.9854
  0
LINE
  8
0
 10
12.7589
 20
26.9854
 11
12.2908
 21
26.87
  0
LINE
  8
0
 10
12.2908
 20
26.87
 11
11.8639
 21
26.646
  0
LINE
  8
0
 10
11.8639
 20
26.646
 11
11.503
 21
26.3262
  0
LINE
  8
0
 10
11.503
 20
26.3262
 11
11.2291
 21
25.9294
  0
LINE
  8
0
 10
11.2291
 20
25.9294
 11
11.0581
 21
25.4786
  0
LINE
  8
0
 10
11.0581
 20
25.4786
 11
11
 21
25
  0
LINE
  8
0
 10
11
 20
25
 11
11.0581
 21
24.5214
  0
LINE
  8
0
 10
11.0581
 20
24.5214
 11
11.2291
 21
24.0705
  0
LINE
  8
0
 10
11.2291
 20
24.0705
 11
11.503
 21
23.6738
  0
LINE
  8
0
 10
11.503
 20
23.6738
 11
11.8639
 21
23.354
  0
LINE
  8
0
 10
11.8639
 20
23.354
 11
12.2908
 21
23.13
  0
LINE
  8
0
 10
12.2908
 20
23.13
 11
12.7589
 21
23.0146
  0
LINE
  8
0
 10
12.7589
 20
23.0146
 11
13.2411
 21
23.0146
  0
LINE
  8
0
 10
13.2411
 20
23.0146
 11
13.7092
 21
23.13
  0
LINE
  8
0
 10
51.7092
 20
23.13
 11
52.1361
 21
23.354
  0
LINE
  8
0
 10
52.1361
 20
23.354
 11
52.497
 21
23.6738
  0
LINE
  8
0
 10
52.497
 20
23.6738
 11
52.7709
 21
24.0705
  0
LINE
  8
0
 10
52.7709
 20
24.0705
 11
52.9419
 21
24.5214
  0
LINE
  8
0
 10
52.9419
 20
24.5214
 11
53
 21
25
  0
LINE
  8
0
 10
53
 20
25
 11
52.9419
 21
25.4786
  0
LINE
  8
0
 10
52.9419
 20
25.4786
 11
52.7709
 21
25.9294
  0
LINE
  8
0
 10
52.7709
 20
25.9294
 11
52.497
 21
26.3262
  0
LINE
  8
0
 10
52.497
 20
26.3262
 11
52.1361
 21
26.646
  0
LINE
  8
0
 10
52.1361
 20
26.646
 11
51.7092
 21
26.87
  0
LINE
  8
0
 10
51.7092
 20
26.87
 11
51.2411
 21
26.9854
  0
LINE
  8
0
 10
51.2411
 20
26.9854
 11
50.7589
 21
26.9854
  0
LINE
  8
0
 10
50.7589
 20
26.9854
 11
50.2908
 21
26.87
  0
LINE
  8
0
 10
50.2908
 20
26.87
 11
49.8639
 21
26.646
  0
LINE
  8
0
 10
49.8639
 20
26.646
 11
49.503
 21
26.3262
  0
LINE
  8
0
 10
49.503
 20
26.3262
 11
49.2291
 21
25.9294
  0
LINE
  8
0
 10
49.2291
 20
25.9294
 11
49.0581
 21
25.4786
  0
LINE
  8
0
 10
49.0581
 20
25.4786
 11
49
 21
25
  0
LINE
  8
0
 10
49
 20
25
 11
49.0581
 21
24.5214
  0
LINE
  8
0
 10
49.0581
 20
24.5214
 11
49.2291
 21
24.0705
  0
LINE
  8
0
 10
49.2291
 20
24.0705
 11
49.503
 21
23.6738
  0
LINE
  8
0
 10
49.503
 20
23.6738
 11
49.8639
 21
23.354
  0
LINE
  8
0
 10
49.8639
 20
23.354
 11
50.2908
 21
23.13
  0
LINE
  8
0
 10
50.2908
 20
23.13
 11
50.7589
 21
23.0146
  0
LINE
  8
0
 10
50.7589
 20
23.0146
 11
51.2411
 21
23.0146
  0
LINE
  8
0
 10
51.2411
 20
23.0146
 11
51.7092
 21
23.13
  0
ENDSEC
  0
SECTION
  2
OBJECTS
  0
DICTIONARY
  0
ENDSEC
  0
EOF
